<svg xmlns="http://www.w3.org/2000/svg" viewBox="0 0 1019.09 781.04"><defs><style>.cls-1{fill:#fff;}.cls-2{fill:#f3f3f3;}.cls-3{fill:#4b6cb7;stroke:#000;stroke-width:0.09px;}.cls-3,.cls-6{stroke-miterlimit:10;}.cls-4,.cls-7{fill:#d3d6e1;}.cls-5{font-size:200px;fill:#565966;}.cls-5,.cls-7{font-family:NunitoSans-ExtraBold, Nunito Sans ExtraBold;}.cls-6{fill:none;stroke:#d3d6e1;stroke-width:6px;}.cls-7{font-size:36px;}.cls-8{letter-spacing:0em;}</style></defs><title>Asset 1</title><g id="Layer_2" data-name="Layer 2"><g id="Layer_1-2" data-name="Layer 1"><rect class="cls-1" x="0.04" y="0.04" width="1019" height="781" rx="58.75" ry="58.75"/><path class="cls-2" d="M0,137H1019a0,0,0,0,1,0,0V722.29A58.75,58.75,0,0,1,960.29,781H58.79A58.75,58.75,0,0,1,0,722.29V137a0,0,0,0,1,0,0Z"/><path class="cls-3" d="M960.29,0H58.79A58.76,58.76,0,0,0,0,58.79V95H1019V58.79A58.75,58.75,0,0,0,960.29,0ZM69,69A20,20,0,1,1,89,49,20,20,0,0,1,69,69Zm57.5,0a20,20,0,1,1,20-20A20,20,0,0,1,126.54,69ZM184,69a20,20,0,1,1,20-20A20,20,0,0,1,184,69Z"/><polygon class="cls-1" points="732.04 504.04 234.54 504.04 234.54 781.04 802.54 781.04 802.54 573.54 732.04 573.54 732.04 504.04"/><polygon class="cls-4" points="732.64 504.04 732.04 504.04 732.04 573.54 802.54 573.54 802.54 572.97 732.64 504.04"/><text class="cls-5" transform="translate(329.55 390.54)">404</text><circle class="cls-4" cx="617.11" cy="606.04" r="10"/><circle class="cls-4" cx="415.11" cy="606.04" r="10"/><path class="cls-6" d="M410.11,670.54s104.5-49,212,0"/><text class="cls-7" transform="translate(431.66 447.35)">pi<tspan class="cls-8" x="31.68" y="0">s</tspan><tspan x="49.03" y="0">ta.app</tspan></text></g></g></svg>