<svg xmlns="http://www.w3.org/2000/svg" viewBox="0 0 73.67 73.77"><defs><style>.cls-1{fill:#4b6cb7;}.cls-2{fill:#385ba3;}</style></defs><title>logo</title><g id="Layer_2" data-name="Layer 2"><g id="Layer_1-2" data-name="Layer 1"><g id="Logo"><path class="cls-1" d="M35.65,42.68c5.71,5.85,10.93,11.22,16.16,16.57a25,25,0,0,0,2.54,2.4,4.94,4.94,0,0,0,7-.48,5.1,5.1,0,0,0,.13-7c-.1-.12-.22-.24-.34-.36-4-4.21-4-4.25,0-8.14S63.82,41,68.76,46A16.34,16.34,0,0,1,72.27,64.2a15.86,15.86,0,0,1-15.84,9.52,15,15,0,0,1-9.63-4.24c-5.67-5.63-11.27-11.32-17-16.89-1.52-1.47-1.43-2.44.06-3.82C31.74,47,33.41,45.06,35.65,42.68Z"/><path class="cls-1" d="M0,15.17C.32,9.26,3.56,4.35,9.72,1.56,16.2-1.38,22.19-.07,27.26,4.68,33,10,38.37,15.7,44,21.13c1.53,1.48,1.47,2.54,0,3.88a41.67,41.67,0,0,0-3.69,3.71c-1.6,1.86-2.86,1.63-4.5-.08-4.77-5-9.67-9.87-14.57-14.74-3.34-3.33-6.34-3.76-8.69-1.39S10.63,18,13.82,21.26a9.39,9.39,0,0,1,1.71,1.81,2.13,2.13,0,0,1,0,1.89,61.29,61.29,0,0,1-5.22,5.35A2.48,2.48,0,0,1,8,30.59C3.35,26.88,0,22.37,0,15.17Z"/><path class="cls-2" d="M.48,57.72c-.1-6.18,3.73-10,7.5-13.79,4-4.08,8.16-8.07,12.22-12.12,2.6-2.6,3-2.63,5.61,0,3.65,3.65,3.76,3.75.16,7.55-4.33,4.59-8.86,9-13.33,13.43-3.31,3.3-3,7.88.62,10a6.34,6.34,0,0,0,7.53-1.24c3.76-3.61,2.43-3.66,6.87.26a9.37,9.37,0,0,1,1.8,2c.29.46.5,1.35.25,1.69-3.4,4.7-8,8-13.79,7.67A15.25,15.25,0,0,1,2.47,64.53C1.44,62.44,1.12,60,.48,57.72Z"/><path class="cls-2" d="M50.92,44.91c-1.82-1.89-3.21-3.42-4.7-4.86s-1.36-2.7.15-4.19c5-5,9.87-10.13,15-15A6,6,0,0,0,61.67,12c-2.48-2.34-6.24-2.17-9,.46-3.18,3-3.13,3-6.15-.06C42.6,8.49,43,9.19,46.53,5.6,51.21.87,59-.45,64.43,2.52c6.35,3.44,9.73,9.89,8.15,16.67a17.11,17.11,0,0,1-3.77,7.43C63.15,32.81,57.1,38.65,50.92,44.91Z"/></g></g></g></svg>